<?xml version="1.0" encoding="UTF-8"?>
<svg xmlns="http://www.w3.org/2000/svg" xmlns:xlink="http://www.w3.org/1999/xlink" width="115px" height="150px" viewBox="0 0 115 149" version="1.1">
<defs>
<linearGradient id="linear0" gradientUnits="userSpaceOnUse" x1="18.3594" y1="130.058" x2="572.8449" y2="628.3955" gradientTransform="matrix(0.204845,0,0,0.203685,0,0.0327131)">
<stop offset="0.0151863" style="stop-color:rgb(14.509804%,16.470588%,17.647059%);stop-opacity:1;"/>
<stop offset="0.3434" style="stop-color:rgb(25.882353%,25.882353%,25.882353%);stop-opacity:1;"/>
<stop offset="0.9985" style="stop-color:rgb(20.392157%,24.313725%,27.45098%);stop-opacity:1;"/>
<stop offset="1" style="stop-color:rgb(0%,0%,0%);stop-opacity:1;"/>
</linearGradient>
<linearGradient id="linear1" gradientUnits="userSpaceOnUse" x1="366.3277" y1="496.622" x2="206.7507" y2="285.0168" gradientTransform="matrix(0.204845,0,0,0.203685,0,0.0327131)">
<stop offset="0" style="stop-color:rgb(100%,100%,100%);stop-opacity:1;"/>
<stop offset="0.4752" style="stop-color:rgb(99.215686%,84.705882%,74.901961%);stop-opacity:1;"/>
<stop offset="0.9466" style="stop-color:rgb(81.960784%,69.411765%,59.607843%);stop-opacity:1;"/>
</linearGradient>
<linearGradient id="linear2" gradientUnits="userSpaceOnUse" x1="146.4785" y1="206.5126" x2="484.1509" y2="206.5126" gradientTransform="matrix(0.204845,0,0,0.203685,0,0.0327131)">
<stop offset="0.0311163" style="stop-color:rgb(69.803922%,70.588235%,71.764706%);stop-opacity:1;"/>
<stop offset="0.5633" style="stop-color:rgb(95.294118%,95.686275%,95.686275%);stop-opacity:1;"/>
<stop offset="0.9388" style="stop-color:rgb(91.764706%,89.803922%,87.058824%);stop-opacity:1;"/>
</linearGradient>
<linearGradient id="linear3" gradientUnits="userSpaceOnUse" x1="291.14" y1="449.4686" x2="446.2197" y2="530.2326" gradientTransform="matrix(0.204845,0,0,0.203685,0,0.0327131)">
<stop offset="0.0311163" style="stop-color:rgb(69.803922%,70.588235%,71.764706%);stop-opacity:1;"/>
<stop offset="0.5633" style="stop-color:rgb(95.294118%,95.686275%,95.686275%);stop-opacity:1;"/>
<stop offset="0.9388" style="stop-color:rgb(91.764706%,89.803922%,87.058824%);stop-opacity:1;"/>
</linearGradient>
<linearGradient id="linear4" gradientUnits="userSpaceOnUse" x1="181.7255" y1="484.3842" x2="313.2464" y2="577.5394" gradientTransform="matrix(0.204845,0,0,0.203685,0,0.0327131)">
<stop offset="0" style="stop-color:rgb(17.647059%,26.27451%,48.627451%);stop-opacity:1;"/>
<stop offset="0.5135" style="stop-color:rgb(25.882353%,35.686275%,60%);stop-opacity:1;"/>
<stop offset="0.7575" style="stop-color:rgb(23.921569%,34.901961%,61.568627%);stop-opacity:1;"/>
<stop offset="1" style="stop-color:rgb(21.960784%,33.72549%,63.137255%);stop-opacity:1;"/>
</linearGradient>
<linearGradient id="linear5" gradientUnits="userSpaceOnUse" x1="145.9512" y1="472.9945" x2="244.5167" y2="637.5421" gradientTransform="matrix(0.204845,0,0,0.203685,0,0.0327131)">
<stop offset="0.013239" style="stop-color:rgb(17.647059%,26.27451%,48.627451%);stop-opacity:1;"/>
<stop offset="0.5135" style="stop-color:rgb(25.882353%,35.686275%,60%);stop-opacity:1;"/>
<stop offset="0.7575" style="stop-color:rgb(23.921569%,34.901961%,61.568627%);stop-opacity:1;"/>
<stop offset="1" style="stop-color:rgb(21.960784%,33.72549%,63.137255%);stop-opacity:1;"/>
</linearGradient>
<linearGradient id="linear6" gradientUnits="userSpaceOnUse" x1="50.2428" y1="500.4049" x2="192.3951" y2="709.6089" gradientTransform="matrix(0.204845,0,0,0.203685,0,0.0327131)">
<stop offset="0.013239" style="stop-color:rgb(17.647059%,26.27451%,48.627451%);stop-opacity:1;"/>
<stop offset="0.5135" style="stop-color:rgb(25.882353%,35.686275%,60%);stop-opacity:1;"/>
<stop offset="0.7575" style="stop-color:rgb(23.921569%,34.901961%,61.568627%);stop-opacity:1;"/>
<stop offset="1" style="stop-color:rgb(21.960784%,33.72549%,63.137255%);stop-opacity:1;"/>
</linearGradient>
<linearGradient id="linear7" gradientUnits="userSpaceOnUse" x1="5.1317" y1="666.8913" x2="142.0285" y2="666.8913" gradientTransform="matrix(0.204845,0,0,0.203685,0,0.0327131)">
<stop offset="0.013239" style="stop-color:rgb(17.647059%,26.27451%,48.627451%);stop-opacity:1;"/>
<stop offset="0.5135" style="stop-color:rgb(25.882353%,35.686275%,60%);stop-opacity:1;"/>
<stop offset="0.7575" style="stop-color:rgb(23.921569%,34.901961%,61.568627%);stop-opacity:1;"/>
<stop offset="1" style="stop-color:rgb(21.960784%,33.72549%,63.137255%);stop-opacity:1;"/>
</linearGradient>
<linearGradient id="linear8" gradientUnits="userSpaceOnUse" x1="312.285" y1="470.1029" x2="364.8355" y2="558.1817" gradientTransform="matrix(0.204845,0,0,0.203685,0,0.0327131)">
<stop offset="0.013239" style="stop-color:rgb(17.647059%,26.27451%,48.627451%);stop-opacity:1;"/>
<stop offset="0.5135" style="stop-color:rgb(25.882353%,35.686275%,60%);stop-opacity:1;"/>
<stop offset="0.7575" style="stop-color:rgb(23.921569%,34.901961%,61.568627%);stop-opacity:1;"/>
<stop offset="1" style="stop-color:rgb(21.960784%,33.72549%,63.137255%);stop-opacity:1;"/>
</linearGradient>
<linearGradient id="linear9" gradientUnits="userSpaceOnUse" x1="401.9702" y1="540.0371" x2="514.5235" y2="687.3091" gradientTransform="matrix(0.204845,0,0,0.203685,0,0.0327131)">
<stop offset="0.5135" style="stop-color:rgb(25.882353%,35.686275%,60%);stop-opacity:1;"/>
<stop offset="0.7575" style="stop-color:rgb(23.921569%,34.901961%,61.568627%);stop-opacity:1;"/>
<stop offset="1" style="stop-color:rgb(21.960784%,33.72549%,63.137255%);stop-opacity:1;"/>
</linearGradient>
<linearGradient id="linear10" gradientUnits="userSpaceOnUse" x1="420.4341" y1="474.642" x2="573.2647" y2="742.7722" gradientTransform="matrix(0.204845,0,0,0.203685,0,0.0327131)">
<stop offset="0.013239" style="stop-color:rgb(17.647059%,26.27451%,48.627451%);stop-opacity:1;"/>
<stop offset="0.5135" style="stop-color:rgb(25.882353%,35.686275%,60%);stop-opacity:1;"/>
<stop offset="0.7575" style="stop-color:rgb(23.921569%,34.901961%,61.568627%);stop-opacity:1;"/>
<stop offset="1" style="stop-color:rgb(21.960784%,33.72549%,63.137255%);stop-opacity:1;"/>
</linearGradient>
<linearGradient id="linear11" gradientUnits="userSpaceOnUse" x1="504.4902" y1="680.2571" x2="561.3235" y2="680.2571" gradientTransform="matrix(0.204845,0,0,0.203685,0,0.0327131)">
<stop offset="0.013239" style="stop-color:rgb(17.647059%,26.27451%,48.627451%);stop-opacity:1;"/>
<stop offset="0.5135" style="stop-color:rgb(25.882353%,35.686275%,60%);stop-opacity:1;"/>
<stop offset="1" style="stop-color:rgb(25.882353%,35.686275%,60%);stop-opacity:1;"/>
</linearGradient>
<linearGradient id="linear12" gradientUnits="userSpaceOnUse" x1="281.3271" y1="476.7742" x2="339.8124" y2="558.8109" gradientTransform="matrix(0.204845,0,0,0.203685,0,0.0327131)">
<stop offset="0.013239" style="stop-color:rgb(17.647059%,26.27451%,48.627451%);stop-opacity:1;"/>
<stop offset="0.2735" style="stop-color:rgb(17.647059%,26.666667%,49.019608%);stop-opacity:1;"/>
<stop offset="0.3673" style="stop-color:rgb(18.823529%,28.235294%,50.588235%);stop-opacity:1;"/>
<stop offset="0.4341" style="stop-color:rgb(21.176471%,30.588235%,53.333333%);stop-opacity:1;"/>
<stop offset="0.4878" style="stop-color:rgb(23.921569%,33.72549%,57.647059%);stop-opacity:1;"/>
<stop offset="0.5135" style="stop-color:rgb(25.882353%,35.686275%,60%);stop-opacity:1;"/>
<stop offset="0.7575" style="stop-color:rgb(23.921569%,34.901961%,61.568627%);stop-opacity:1;"/>
<stop offset="1" style="stop-color:rgb(21.960784%,33.72549%,63.137255%);stop-opacity:1;"/>
</linearGradient>
<linearGradient id="linear13" gradientUnits="userSpaceOnUse" x1="219.3376" y1="136.2126" x2="491.0377" y2="136.2126" gradientTransform="matrix(0.204845,0,0,0.203685,0,0.0327131)">
<stop offset="0.0311163" style="stop-color:rgb(69.803922%,70.588235%,71.764706%);stop-opacity:1;"/>
<stop offset="0.5633" style="stop-color:rgb(95.294118%,95.686275%,95.686275%);stop-opacity:1;"/>
<stop offset="0.9388" style="stop-color:rgb(91.764706%,89.803922%,87.058824%);stop-opacity:1;"/>
</linearGradient>
<linearGradient id="linear14" gradientUnits="userSpaceOnUse" x1="258.7573" y1="53.8658" x2="458.3925" y2="209.9599" gradientTransform="matrix(0.204845,0,0,0.203685,0,0.0327131)">
<stop offset="0" style="stop-color:rgb(69.803922%,70.588235%,71.764706%);stop-opacity:1;"/>
<stop offset="0.2138" style="stop-color:rgb(95.294118%,95.686275%,95.686275%);stop-opacity:1;"/>
<stop offset="1" style="stop-color:rgb(91.764706%,89.803922%,87.058824%);stop-opacity:1;"/>
</linearGradient>
</defs>
<g id="surface1">
<path style=" stroke:none;fill-rule:nonzero;fill:url(#linear0);" d="M 1.042969 1.96875 L 113.976562 1.96875 L 113.976562 147.175781 L 1.042969 147.175781 Z M 1.042969 1.96875 "/>
<path style=" stroke:none;fill-rule:nonzero;fill:url(#linear1);" d="M 80.113281 72.890625 C 78.3125 73.460938 76.078125 74.113281 75.074219 74.398438 L 75.199219 74.5625 L 75.15625 75.679688 L 76.835938 81.140625 L 76.203125 82.832031 C 76.203125 82.832031 76.980469 83.21875 78.148438 83.808594 L 75.792969 97.210938 L 66.023438 109.820312 L 63.644531 112.875 L 62.148438 112.628906 L 56.457031 111.691406 L 56.023438 111.613281 L 48.957031 110.429688 L 48.507812 110.347656 L 46.664062 110.042969 L 45.230469 106.722656 L 40.847656 96.496094 L 37.28125 88.226562 C 37.382812 87.902344 37.507812 87.578125 37.652344 87.292969 C 37.976562 86.578125 38.386719 86.050781 38.898438 85.945312 C 39.144531 85.90625 39.414062 85.945312 39.679688 86.070312 C 39.371094 85.621094 39.023438 84.886719 38.675781 84.132812 C 39.144531 83.949219 39.414062 83.847656 39.414062 83.847656 C 39.414062 83.847656 39.820312 81.8125 39.945312 81.121094 C 40.046875 80.671875 40.230469 79.855469 40.519531 79.164062 C 40.824219 78.453125 41.234375 77.820312 41.808594 77.738281 C 42.015625 77.71875 42.21875 77.738281 42.445312 77.820312 C 42.238281 77.574219 41.992188 77.1875 41.746094 76.78125 L 42.363281 76.027344 L 42.875 75.824219 L 43.078125 75.742188 L 44.617188 75.109375 L 72.535156 63.726562 L 81.753906 63.726562 Z M 80.113281 72.890625 "/>
<path style="fill-rule:nonzero;fill:rgb(21.568627%,38.039216%,42.745098%);fill-opacity:1;stroke-width:1;stroke-linecap:butt;stroke-linejoin:miter;stroke:rgb(29.019608%,32.54902%,36.470588%);stroke-opacity:1;stroke-miterlimit:10;" d="M 556.403845 541.307774 L 556.403845 722.404534 L 5.091501 722.404534 L 5.091501 562.997961 C 5.091501 562.997961 6.502629 559.795255 8.790944 554.693937 C 9.896963 552.296702 11.098329 549.59262 12.509457 546.504981 C 20.003689 530.395558 31.407126 507.209496 38.996705 498.598626 C 46.395591 490.102824 75.705095 472.401637 75.705095 472.401637 C 75.705095 472.401637 77.707371 471.097541 81.006359 469.007151 C 82.798872 467.798945 85.106257 466.398959 87.604334 464.807195 C 91.894925 462.103113 97.100842 458.804517 102.592799 455.294964 C 105.79644 453.300464 109.000082 451.305964 112.299069 449.292286 C 118.000788 445.801911 123.60716 442.407426 128.698662 439.396498 C 130.09072 438.591027 131.406501 437.804734 132.703213 437.095152 C 136.402656 435.004763 139.701644 433.106152 142.295068 431.802056 C 154.404069 425.703489 192.409171 411.396787 192.409171 411.396787 C 192.409171 411.396787 194.392378 401.40511 195.002595 397.991446 C 195.898852 393.503821 200.895007 385.909379 204.098648 381.402577 C 205.605122 379.19712 206.692072 377.797134 206.692072 377.797134 L 217.80947 389.994269 L 222.691209 395.402432 C 222.900971 395.594211 222.996318 395.805167 223.20608 395.996946 L 224.998594 397.991446 L 245.402738 411.396787 L 272.099749 422.098047 L 272.099749 439.300609 L 279.498635 429.596599 L 297.404701 425.799378 L 305.604497 434.793806 L 312.602928 436.308859 L 312.602928 427.295253 L 329.402976 407.100941 L 345.592806 389.898379 L 349.406664 371.909524 L 352.400543 347.400188 L 366.79786 365.791779 L 366.607167 371.295832 L 374.806963 398.106514 L 371.698668 406.39136 C 371.698668 406.39136 378.296644 409.709133 386.896895 414.100869 C 390.596338 415.999479 394.60089 417.993979 398.700788 420.103547 C 401.999776 421.7912 405.39411 423.593922 408.597751 425.300753 C 414.604579 428.50346 420.001189 431.39932 423.49087 433.39382 C 424.00574 433.700667 424.501542 434.007513 424.997344 434.295181 C 427.80053 435.906123 430.908825 437.804734 434.207812 439.895123 C 434.303159 439.991013 434.398505 439.991013 434.493852 440.10608 C 442.1025 444.804661 450.893444 450.308714 459.608111 456.100435 C 463.70801 458.804517 467.693492 461.393531 471.698043 464.097613 C 475.397486 466.590738 479.001583 469.007151 482.395917 471.308497 C 487.506488 474.798872 492.197534 478.097468 496.106739 480.993329 C 496.602541 481.396064 497.098342 481.702911 497.594144 482.105646 C 506.499504 488.798728 524.291155 502.491737 531.995149 510.603982 C 539.203342 517.60391 556.403845 541.307774 556.403845 541.307774 Z M 556.403845 541.307774 " transform="matrix(0.204845,0,0,0.203685,0,0.0327131)"/>
<path style=" stroke:none;fill-rule:nonzero;fill:rgb(92.156863%,78.039216%,67.058824%);fill-opacity:1;" d="M 53.402344 30.28125 L 62.988281 34.558594 L 67.023438 43.886719 L 69.707031 55.332031 L 76.222656 50.300781 L 72.042969 37.59375 L 57.890625 27.875 L 51.988281 28.832031 L 52.5 30.484375 L 52.890625 30.199219 Z M 53.402344 30.28125 "/>
<path style=" stroke:none;fill-rule:nonzero;fill:url(#linear2);" d="M 85.972656 46.492188 C 85.050781 48.121094 88.269531 51.605469 88.800781 53.398438 C 90.03125 57.492188 88.082031 70.363281 88.082031 70.363281 C 88.082031 70.363281 83.761719 71.628906 82.144531 72.199219 C 81.671875 72.382812 80.933594 72.605469 80.09375 72.871094 C 78.292969 73.441406 76.058594 74.09375 75.054688 74.378906 C 74.707031 74.480469 74.503906 74.539062 74.503906 74.539062 L 72.226562 71.464844 C 72.226562 71.464844 72.226562 71.199219 72.226562 70.792969 C 72.226562 70.019531 72.207031 68.777344 72.25 68.105469 C 72.308594 66.863281 72.414062 65.375 72.535156 63.726562 C 73.027344 57.167969 73.703125 48.203125 72.25 43.519531 C 71.65625 41.644531 68.867188 38.632812 67.515625 37.183594 C 66.390625 35.960938 63.746094 33.925781 62.660156 32.683594 C 62.027344 31.96875 60.921875 30.300781 60.082031 29.832031 C 58.769531 29.117188 55.371094 29.058594 54.097656 29.832031 C 46.191406 34.71875 37.28125 62.929688 37.28125 62.929688 C 37.28125 62.929688 33.636719 57.695312 32.550781 55.882812 C 31.976562 54.90625 30.953125 52.867188 30.5625 51.808594 C 30.316406 51.117188 30.03125 49.671875 29.988281 48.9375 C 29.949219 47.226562 30.6875 43.867188 30.972656 42.175781 C 31.28125 40.503906 32.039062 37.164062 32.816406 35.65625 C 33.101562 35.066406 34.003906 34.109375 34.351562 33.558594 C 34.863281 32.722656 35.746094 30.972656 36.050781 30.035156 C 36.214844 29.546875 36.421875 28.304688 36.050781 27.9375 C 35.746094 27.632812 34.699219 27.875 34.351562 27.652344 C 33.984375 27.429688 33.554688 26.550781 33.511719 26.105469 C 33.453125 25.410156 34.210938 24.128906 34.351562 23.4375 C 34.496094 22.664062 34.515625 21.054688 34.515625 21.054688 C 34.515625 21.054688 36.214844 18.792969 36.625 18.242188 C 37.242188 17.386719 38.386719 15.390625 39.453125 14.859375 C 39.617188 14.78125 39.761719 14.738281 39.925781 14.71875 C 40.109375 14.71875 40.3125 14.78125 40.519531 14.882812 C 41.480469 15.371094 42.648438 16.753906 43.488281 16.695312 C 44.964844 16.550781 46.890625 13.84375 48.035156 12.90625 C 49.121094 12.007812 51.394531 10.238281 52.746094 9.808594 C 53.875 9.464844 56.3125 9.75 57.5 9.808594 C 58.789062 9.871094 61.371094 10.195312 62.660156 10.378906 C 64.097656 10.582031 66.984375 11.132812 68.4375 11.214844 C 70.304688 11.316406 74.214844 11.03125 75.9375 11.785156 C 77.082031 12.292969 78.660156 14.332031 79.601562 15.167969 C 80.769531 16.183594 84.230469 19.808594 85.378906 20.890625 C 85.503906 21.726562 87.816406 26.816406 87.816406 26.816406 C 87.816406 26.816406 89.804688 27.714844 90.789062 28.367188 C 92.46875 29.484375 97.710938 32.582031 97.710938 32.582031 L 99.1875 37.429688 L 95.867188 44.335938 C 95.867188 44.335938 88.820312 44.394531 86.546875 45.921875 C 86.28125 46.085938 86.097656 46.289062 85.972656 46.492188 Z M 85.972656 46.492188 "/>
<path style=" stroke:none;fill-rule:nonzero;fill:rgb(99.215686%,84.705882%,74.901961%);fill-opacity:1;" d="M 79.480469 56.085938 C 79.316406 56.984375 78.476562 58.714844 77.820312 59.386719 C 77.472656 59.753906 76.019531 60.34375 76.019531 60.34375 L 74.789062 61.035156 L 73.683594 63.234375 C 73.683594 63.234375 72.78125 64.582031 72.308594 64.742188 C 71.859375 64.90625 70.773438 64.480469 70.382812 64.742188 C 69.339844 65.457031 68.949219 68.289062 68.171875 69.265625 C 66.882812 70.914062 63.316406 73.257812 61.699219 74.582031 C 59.546875 76.355469 55.101562 80 52.460938 80.917969 C 51.292969 81.324219 48.710938 81.160156 47.503906 80.917969 C 46.316406 80.671875 44.144531 79.511719 43.222656 78.714844 C 42.527344 78.125 41.605469 76.496094 41.152344 75.703125 C 40.660156 74.824219 39.925781 72.910156 39.492188 71.996094 C 39.042969 70.996094 38.101562 69.042969 37.691406 68.023438 C 37.464844 67.410156 37.179688 66.578125 36.894531 65.679688 C 36.296875 63.828125 35.683594 61.648438 35.355469 60.34375 C 34.925781 58.671875 34.25 55.210938 34.394531 53.5 C 34.476562 52.523438 35.316406 50.648438 35.355469 49.671875 C 35.375 49.34375 35.292969 48.753906 35.191406 48.164062 C 35.109375 47.695312 35.027344 47.246094 34.96875 46.941406 C 34.90625 46.675781 34.886719 46.511719 34.886719 46.511719 C 34.886719 46.511719 35.417969 40.566406 36.050781 38.691406 C 36.484375 37.449219 37.976562 35.210938 38.816406 34.171875 C 38.960938 33.988281 39.144531 33.785156 39.371094 33.558594 C 39.65625 33.273438 39.964844 32.988281 40.292969 32.722656 C 40.660156 32.417969 41.03125 32.132812 41.296875 31.96875 C 42.464844 31.21875 44.289062 30.117188 45.660156 29.871094 C 46.601562 29.710938 49.429688 29.363281 50.390625 29.363281 C 51.601562 29.363281 54.019531 29.871094 55.207031 30.054688 C 56.433594 30.238281 58.789062 31.113281 59.898438 31.707031 C 60.796875 32.195312 62.375 33.539062 63.070312 34.3125 C 63.851562 35.1875 64.976562 37.265625 65.550781 38.285156 C 66.042969 39.140625 66.921875 40.914062 67.210938 41.847656 C 67.679688 43.480469 67.886719 46.960938 68.460938 48.570312 C 68.644531 49.121094 69.566406 50.628906 69.566406 50.628906 L 70.671875 53.90625 C 70.671875 53.90625 73.273438 52.441406 73.171875 51.566406 C 73.027344 50.464844 72.964844 47.164062 72.964844 47.164062 C 72.964844 47.164062 74.6875 47.472656 75.074219 47.714844 C 76.101562 48.328125 78.375 51.136719 78.375 51.136719 C 78.375 51.136719 79.316406 52.523438 79.480469 53.050781 C 79.683594 53.785156 79.601562 55.332031 79.480469 56.085938 Z M 79.480469 56.085938 "/>
<path style=" stroke:none;fill-rule:nonzero;fill:rgb(81.960784%,69.411765%,59.607843%);fill-opacity:1;" d="M 38.714844 39.097656 C 38.46875 40.238281 38.386719 42.582031 38.367188 43.742188 C 38.367188 44.109375 38.53125 44.90625 38.367188 45.230469 C 37.917969 46.148438 36.050781 45.394531 34.96875 46.921875 C 34.90625 46.65625 34.886719 46.492188 34.886719 46.492188 C 34.886719 46.492188 35.417969 40.546875 36.050781 38.671875 C 36.484375 37.429688 37.976562 35.1875 38.816406 34.148438 C 38.960938 33.964844 39.144531 33.761719 39.371094 33.539062 C 40.292969 34.597656 39.003906 37.734375 38.714844 39.097656 Z M 38.714844 39.097656 "/>
<path style=" stroke:none;fill-rule:nonzero;fill:rgb(87.843137%,74.509804%,64.313725%);fill-opacity:1;" d="M 42.875 50.464844 C 42.773438 50.425781 42.875 50.058594 42.875 50.058594 C 42.875 50.058594 42.648438 48.875 42.382812 48.589844 C 42.054688 48.246094 41.050781 47.960938 40.578125 47.960938 C 40.109375 47.960938 39.144531 48.164062 38.734375 48.386719 C 38.140625 48.734375 36.933594 49.628906 36.730469 50.28125 C 36.460938 51.097656 36.972656 52.828125 37.078125 53.683594 C 37.179688 54.476562 36.769531 56.148438 37.078125 56.902344 C 37.34375 57.554688 38.59375 58.367188 39.125 58.835938 C 39.515625 59.183594 40.210938 59.976562 40.601562 60.324219 C 40.824219 60.527344 41.417969 60.8125 41.5 61.097656 C 41.871094 62.460938 39.945312 65.476562 38.613281 65.984375 C 38.265625 66.109375 37.570312 65.90625 36.933594 65.640625 C 36.339844 63.785156 35.726562 61.605469 35.398438 60.304688 C 34.96875 58.632812 34.292969 55.171875 34.433594 53.460938 C 34.515625 52.480469 35.355469 50.609375 35.398438 49.628906 C 35.417969 49.304688 35.335938 48.714844 35.234375 48.121094 C 36.6875 46.839844 39.1875 45.496094 40.578125 45.699219 C 41.644531 45.863281 43.816406 47.265625 43.980469 48.328125 C 44.042969 48.9375 43.425781 50.648438 42.875 50.464844 Z M 42.875 50.464844 "/>
<path style=" stroke:none;fill-rule:nonzero;fill:rgb(49.019608%,34.509804%,26.27451%);fill-opacity:1;" d="M 41.277344 60.140625 C 41.277344 60.140625 41.972656 59.894531 42.09375 60.34375 C 42.21875 60.792969 42.527344 61.035156 42.257812 61.34375 C 41.992188 61.648438 41.09375 62.6875 41.253906 61.851562 C 41.277344 61.730469 41.011719 62.828125 40.601562 61.117188 C 40.335938 59.996094 41.277344 60.140625 41.277344 60.140625 Z M 41.277344 60.140625 "/>
<path style=" stroke:none;fill-rule:nonzero;fill:rgb(87.843137%,74.509804%,64.313725%);fill-opacity:1;" d="M 67.539062 69.917969 L 63.972656 73.683594 C 63.972656 73.683594 61.085938 77.332031 59.015625 78.511719 C 57.683594 79.265625 52.011719 81.203125 50.496094 81.121094 C 49.386719 81.058594 47.667969 81.019531 46.089844 80.367188 C 45.699219 80.203125 45.3125 80 44.941406 79.777344 C 43.960938 79.183594 43.097656 78.429688 42.566406 77.921875 C 42.527344 77.882812 42.503906 77.839844 42.464844 77.800781 C 42.257812 77.554688 42.015625 77.167969 41.769531 76.761719 C 41.398438 76.148438 41.070312 75.457031 40.867188 75.050781 C 40.765625 74.824219 40.683594 74.683594 40.683594 74.683594 L 38 68.675781 L 36.6875 64.945312 C 36.6875 64.945312 38.203125 64.722656 38.492188 64.316406 C 38.714844 63.96875 38.980469 63.15625 39.269531 62.871094 C 39.472656 62.664062 40.007812 62.460938 40.230469 62.320312 C 40.519531 62.15625 41.152344 61.6875 41.441406 61.832031 C 41.933594 62.074219 41.933594 63.398438 41.933594 63.949219 C 41.933594 64.5 41.871094 65.597656 41.6875 66.128906 C 41.625 66.332031 41.335938 66.636719 41.195312 66.800781 C 40.988281 67.023438 40.273438 67.269531 40.230469 67.574219 C 40.171875 68.042969 41.113281 68.695312 41.5 68.960938 C 41.933594 69.246094 42.996094 69.53125 43.324219 69.917969 C 43.632812 70.285156 43.917969 71.527344 44.019531 72.015625 C 44.042969 72.136719 44.0625 72.21875 44.0625 72.21875 C 44.0625 72.21875 44.535156 72.667969 44.738281 72.769531 C 44.964844 72.871094 45.578125 72.972656 45.699219 72.769531 C 45.886719 72.484375 45.3125 71.851562 45.148438 71.566406 C 45.105469 71.503906 45.066406 71.425781 45.023438 71.34375 C 44.71875 70.832031 44.226562 70.039062 44.492188 69.691406 C 44.675781 69.449219 45.457031 69.753906 45.699219 69.9375 C 45.945312 70.121094 46.191406 70.488281 46.417969 70.894531 C 46.765625 71.546875 47.054688 72.339844 47.277344 72.769531 C 47.378906 72.972656 47.667969 73.480469 47.523438 73.664062 C 46.828125 74.519531 44.183594 73.542969 43.097656 73.296875 C 43.015625 73.277344 42.914062 73.238281 42.773438 73.195312 C 42.527344 73.113281 42.21875 73.035156 42.117188 73.175781 C 41.972656 73.359375 41.953125 73.625 42.015625 73.910156 C 42.136719 74.460938 42.585938 75.132812 43.058594 75.703125 C 43.488281 76.230469 43.960938 76.699219 44.289062 76.964844 C 45.023438 77.554688 48.21875 77.636719 49.164062 77.71875 C 50.761719 77.820312 54.019531 76.984375 55.535156 76.433594 C 56.78125 75.988281 60.222656 73.480469 61.414062 72.890625 C 62.539062 72.339844 62.3125 72.015625 63.441406 71.425781 C 64.484375 70.957031 67.539062 69.917969 67.539062 69.917969 Z M 67.539062 69.917969 "/>
<path style=" stroke:none;fill-rule:nonzero;fill:rgb(81.960784%,69.411765%,59.607843%);fill-opacity:1;" d="M 38.734375 51.382812 C 38.921875 51.6875 38.058594 52.257812 38.082031 52.605469 C 38.101562 52.828125 38.714844 52.789062 38.714844 52.789062 C 38.714844 52.789062 39.453125 52.398438 39.636719 52.605469 C 39.863281 52.867188 39.042969 53.5 38.714844 53.582031 C 38.222656 53.722656 37.382812 53.804688 37.054688 53.4375 C 36.789062 53.152344 36.667969 52.421875 36.707031 52.035156 C 36.730469 51.871094 36.605469 51.503906 36.707031 51.382812 C 36.996094 50.972656 38.46875 50.933594 38.734375 51.382812 Z M 38.734375 51.382812 "/>
<path style=" stroke:none;fill-rule:nonzero;fill:rgb(100%,100%,100%);fill-opacity:1;" d="M 42.875 50.058594 C 42.875 50.058594 41.234375 50.261719 40.660156 50.425781 C 40.621094 50.445312 40.578125 50.445312 40.558594 50.464844 C 39.964844 50.667969 39.390625 51.363281 38.757812 51.382812 C 38.59375 51.382812 38.304688 51.382812 38 51.382812 C 37.382812 51.382812 36.707031 51.382812 36.707031 51.382812 C 36.707031 51.382812 37.097656 51.078125 37.628906 50.730469 C 37.957031 50.507812 38.347656 50.261719 38.714844 50.078125 C 39.085938 49.894531 39.433594 49.753906 39.699219 49.710938 C 39.800781 49.691406 40.007812 49.671875 40.230469 49.628906 C 40.292969 49.628906 40.355469 49.609375 40.414062 49.609375 C 40.742188 49.570312 41.132812 49.527344 41.460938 49.570312 C 42.28125 49.652344 42.875 50.058594 42.875 50.058594 Z M 42.875 50.058594 "/>
<path style=" stroke:none;fill-rule:nonzero;fill:rgb(100%,100%,100%);fill-opacity:1;" d="M 51.847656 51.441406 C 52.644531 51.566406 53.894531 51.707031 54.695312 51.6875 C 55.390625 51.667969 57.519531 51.382812 57.519531 51.382812 C 57.519531 51.382812 55.882812 49.875 55.289062 49.527344 C 54.753906 49.222656 53.75 48.957031 53.136719 48.957031 C 52.707031 48.957031 52.011719 48.917969 51.660156 49.160156 C 51.394531 49.367188 50.863281 49.875 50.761719 50.199219 C 50.679688 50.425781 50.761719 51.15625 50.761719 51.15625 C 50.761719 51.15625 51.660156 51.402344 51.847656 51.441406 Z M 51.847656 51.441406 "/>
<path style=" stroke:none;fill-rule:nonzero;fill:rgb(25.490196%,22.745098%,23.529412%);fill-opacity:1;" d="M 54.613281 50.300781 C 54.613281 49.59375 53.90625 49.019531 53.035156 49.019531 C 52.164062 49.019531 51.457031 49.59375 51.457031 50.300781 C 51.457031 51.011719 52.164062 51.585938 53.035156 51.585938 C 53.90625 51.585938 54.613281 51.011719 54.613281 50.300781 Z M 54.613281 50.300781 "/>
<path style=" stroke:none;fill-rule:nonzero;fill:rgb(25.490196%,22.745098%,23.529412%);fill-opacity:1;" d="M 40.640625 50.425781 C 40.601562 50.445312 40.558594 50.445312 40.539062 50.464844 C 39.945312 50.667969 39.371094 51.363281 38.734375 51.382812 C 38.574219 51.382812 38.285156 51.382812 37.976562 51.382812 C 37.792969 51.300781 37.671875 51.199219 37.609375 51.035156 C 37.570312 50.933594 37.570312 50.832031 37.609375 50.710938 C 37.9375 50.484375 38.328125 50.242188 38.695312 50.058594 C 38.757812 50.039062 38.816406 49.996094 38.878906 49.976562 C 39.1875 49.832031 39.453125 49.730469 39.699219 49.691406 C 39.761719 49.691406 39.863281 49.671875 39.964844 49.652344 C 40.046875 49.628906 40.128906 49.628906 40.230469 49.609375 C 40.292969 49.609375 40.355469 49.589844 40.414062 49.589844 C 40.558594 49.652344 40.683594 49.773438 40.722656 49.894531 C 40.785156 50.058594 40.742188 50.242188 40.640625 50.425781 Z M 40.640625 50.425781 "/>
<path style=" stroke:none;fill-rule:nonzero;fill:rgb(100%,100%,100%);fill-opacity:1;" d="M 39.964844 49.652344 C 39.863281 49.753906 39.699219 49.894531 39.617188 49.9375 C 39.492188 49.976562 39.25 50.039062 39.125 50.039062 C 39.085938 50.039062 38.941406 50.015625 38.878906 49.976562 C 39.1875 49.832031 39.453125 49.730469 39.699219 49.691406 C 39.761719 49.691406 39.84375 49.671875 39.964844 49.652344 Z M 39.964844 49.652344 "/>
<path style=" stroke:none;fill-rule:nonzero;fill:rgb(100%,100%,100%);fill-opacity:1;" d="M 52.113281 49.875 C 52.214844 49.9375 52.214844 50.464844 52.257812 50.566406 C 52.296875 50.667969 52.542969 50.871094 52.644531 50.933594 C 52.746094 50.996094 53.28125 50.792969 53.402344 50.75 C 53.546875 50.710938 53.445312 50.402344 53.585938 50.464844 C 53.648438 50.484375 53.628906 50.6875 53.585938 50.75 C 53.503906 50.894531 53.199219 51.054688 53.054688 51.078125 C 52.933594 51.097656 52.6875 51.117188 52.5625 51.078125 C 52.398438 51.015625 52.214844 50.933594 52.132812 50.769531 C 52.09375 50.6875 51.949219 50.425781 51.949219 50.324219 C 51.949219 50.222656 51.886719 49.976562 51.949219 49.894531 C 51.96875 49.832031 52.070312 49.855469 52.113281 49.875 Z M 52.113281 49.875 "/>
<path style=" stroke:none;fill-rule:nonzero;fill:rgb(0%,0%,0%);fill-opacity:1;" d="M 43.960938 45.863281 C 44.042969 47.164062 44.101562 48.53125 44.125 49.832031 C 43.835938 50.261719 43.304688 51.054688 43.039062 51.484375 C 42.28125 53.113281 41.253906 55.171875 40.355469 56.859375 C 40.253906 57.167969 39.902344 58.082031 39.761719 58.429688 C 39.761719 58.632812 39.71875 59.0625 39.699219 59.324219 C 39.679688 59.019531 39.65625 58.714844 39.636719 58.386719 C 39.761719 57.960938 39.984375 57.144531 40.109375 56.738281 C 40.90625 54.945312 41.808594 53.011719 42.691406 51.257812 C 42.957031 50.871094 43.53125 50.078125 43.796875 49.691406 C 43.796875 49.691406 43.773438 49.792969 43.773438 49.792969 C 43.816406 48.511719 43.855469 47.144531 43.960938 45.863281 Z M 43.960938 45.863281 "/>
<path style="fill:none;stroke-width:0.5;stroke-linecap:butt;stroke-linejoin:miter;stroke:rgb(0%,0%,0%);stroke-opacity:1;stroke-miterlimit:10;" d="M 240.101474 283.902214 C 240.101474 283.902214 243.800917 294.104848 245.307391 297.307555 C 246.298995 299.397944 248.205924 303.808857 249.807745 305.592401 C 252.706277 308.795107 261.00142 314.490939 263.899952 317.693645 C 265.692466 319.592256 268.800761 324.90453 268.800761 324.90453 " transform="matrix(0.204845,0,0,0.203685,0,0.0327131)"/>
<path style="fill:none;stroke-width:0.5;stroke-linecap:butt;stroke-linejoin:miter;stroke:rgb(0%,0%,0%);stroke-opacity:1;stroke-miterlimit:10;" d="M 225.303702 199.09761 C 225.303702 199.09761 223.301427 212.291994 223.20608 216.702908 C 223.20608 219.598768 224.197683 228.094571 224.197683 228.094571 " transform="matrix(0.204845,0,0,0.203685,0,0.0327131)"/>
<path style=" stroke:none;fill-rule:nonzero;fill:rgb(51.764706%,43.921569%,34.117647%);fill-opacity:1;" d="M 48.136719 45.027344 C 47.789062 45.617188 48.589844 46.226562 49.222656 46.492188 C 49.898438 46.757812 51.375 46.511719 52.113281 46.492188 C 53.464844 46.453125 56.167969 46.59375 57.5 46.796875 C 57.785156 46.839844 58.523438 47.308594 58.667969 47.042969 C 59.097656 46.269531 56.988281 44.78125 56.148438 44.539062 C 55.65625 44.394531 54.980469 44.457031 54.121094 44.476562 C 53.097656 44.496094 52.050781 44.152344 51.089844 44.457031 C 50.820312 44.539062 48.382812 44.640625 48.136719 45.027344 Z M 48.136719 45.027344 "/>
<path style=" stroke:none;fill-rule:nonzero;fill:rgb(51.764706%,43.921569%,34.117647%);fill-opacity:1;" d="M 43.960938 46.492188 C 43.835938 45.535156 41.253906 45.3125 40.230469 45.3125 C 39.042969 45.3125 36.953125 46.351562 36.074219 47.125 C 35.746094 47.410156 35.234375 48.246094 35.292969 48.691406 C 35.335938 49.019531 35.746094 49.039062 36.074219 49.039062 C 37.054688 49 38.550781 47.53125 39.472656 47.226562 C 40.273438 46.960938 42.035156 47.429688 42.875 47.226562 C 43.179688 47.125 44 46.820312 43.960938 46.492188 Z M 43.960938 46.492188 "/>
<path style=" stroke:none;fill-rule:nonzero;fill:rgb(87.843137%,74.509804%,64.313725%);fill-opacity:1;" d="M 47.074219 62.175781 C 47.402344 62.21875 48.117188 62.378906 48.382812 62.175781 C 48.652344 61.972656 48.855469 61.21875 48.753906 60.914062 C 48.671875 60.691406 47.730469 60.609375 47.484375 60.546875 C 47.03125 60.464844 46.171875 60.8125 46.171875 60.8125 C 46.171875 60.8125 46.191406 61.808594 46.398438 62.035156 C 46.5 62.15625 46.890625 62.15625 47.074219 62.175781 Z M 47.074219 62.175781 "/>
<path style=" stroke:none;fill-rule:nonzero;fill:rgb(49.019608%,34.509804%,26.27451%);fill-opacity:1;" d="M 43.53125 60.667969 C 43.613281 60.261719 44.59375 60.34375 45.003906 60.40625 C 45.394531 60.445312 46.152344 60.382812 46.5 60.589844 C 46.785156 60.773438 47.257812 61.605469 47.011719 61.851562 C 46.765625 62.074219 46.050781 61.628906 45.722656 61.546875 C 45.085938 61.34375 43.40625 61.300781 43.53125 60.667969 Z M 43.53125 60.667969 "/>
<path style=" stroke:none;fill-rule:nonzero;fill:rgb(63.921569%,54.509804%,47.058824%);fill-opacity:1;" d="M 50.371094 67.390625 C 50.738281 66.964844 51.96875 66.71875 52.5 66.902344 C 52.726562 66.984375 53.117188 67.226562 53.179688 67.453125 C 53.238281 67.636719 53.300781 67.757812 53.15625 67.878906 C 52.726562 68.207031 51.558594 68.105469 51.027344 67.960938 C 50.863281 67.921875 50.332031 67.796875 50.332031 67.796875 C 50.332031 67.796875 50.308594 67.492188 50.371094 67.390625 Z M 50.371094 67.390625 "/>
<path style=" stroke:none;fill-rule:nonzero;fill:rgb(72.156863%,55.294118%,48.235294%);fill-opacity:1;" d="M 51.007812 67.554688 C 51.007812 67.554688 49.019531 68.410156 48.34375 68.652344 C 47.769531 68.859375 46.601562 69.164062 46.007812 69.285156 C 45.414062 69.40625 44.226562 69.734375 43.632812 69.613281 C 43.324219 69.550781 42.832031 69.164062 42.566406 69 C 42.238281 68.816406 41.253906 68.226562 41.253906 68.226562 C 41.253906 68.226562 41.441406 68.144531 41.726562 68.042969 C 42.421875 67.777344 43.695312 67.289062 44.226562 67.148438 C 45.230469 66.902344 46.949219 66.78125 47.976562 66.902344 C 48.691406 67.003906 51.007812 67.554688 51.007812 67.554688 Z M 51.007812 67.554688 "/>
<path style="fill-rule:nonzero;fill:rgb(72.156863%,55.294118%,48.235294%);fill-opacity:1;stroke-width:0.25;stroke-linecap:butt;stroke-linejoin:miter;stroke:rgb(0%,0%,0%);stroke-opacity:1;stroke-miterlimit:10;" d="M 201.505224 334.896208 C 201.505224 334.896208 217.199253 335.298943 222.691209 334.896208 C 229.098492 334.397583 249.102181 331.501722 249.102181 331.501722 " transform="matrix(0.204845,0,0,0.203685,0,0.0327131)"/>
<path style="fill:none;stroke-width:0.5;stroke-linecap:butt;stroke-linejoin:miter;stroke:rgb(0%,0%,0%);stroke-opacity:1;stroke-miterlimit:10;" d="M 221.108458 243.398522 C 221.394497 242.708119 214.701175 242.804008 214.605829 244.299883 " transform="matrix(0.204845,0,0,0.203685,0,0.0327131)"/>
<path style="fill:none;stroke-width:0.25;stroke-linecap:butt;stroke-linejoin:miter;stroke:rgb(0%,0%,0%);stroke-opacity:1;stroke-miterlimit:10;" d="M 243.896264 256.995642 C 243.896264 256.995642 253.793227 263.803791 257.607086 264.801041 C 261.993023 266.009248 271.298838 264.091459 275.799192 264.801041 C 278.697724 265.299666 286.706827 269.403733 286.706827 269.403733 " transform="matrix(0.204845,0,0,0.203685,0,0.0327131)"/>
<path style="fill:none;stroke-width:0.25;stroke-linecap:butt;stroke-linejoin:miter;stroke:rgb(53.333333%,54.117647%,54.901961%);stroke-opacity:1;stroke-miterlimit:10;" d="M 285.105007 262.00107 C 290.501617 262.806541 291.397874 262.99832 297.69074 266.392805 " transform="matrix(0.204845,0,0,0.203685,0,0.0327131)"/>
<path style="fill:none;stroke-width:0.25;stroke-linecap:butt;stroke-linejoin:miter;stroke:rgb(53.333333%,54.117647%,54.901961%);stroke-opacity:1;stroke-miterlimit:10;" d="M 290.005815 266.392805 C 286.706827 263.094209 279.307942 263.89968 279.89909 263.496945 " transform="matrix(0.204845,0,0,0.203685,0,0.0327131)"/>
<path style="fill:none;stroke-width:0.5;stroke-linecap:butt;stroke-linejoin:miter;stroke:rgb(45.098039%,40.392157%,41.568627%);stroke-opacity:1;stroke-miterlimit:10;" d="M 280.795346 252.105282 C 280.795346 252.105282 287.107283 254.406628 290.005815 255.307988 C 294.105713 256.497017 306.004952 257.494267 306.004952 253.198421 " transform="matrix(0.204845,0,0,0.203685,0,0.0327131)"/>
<path style=" stroke:none;fill-rule:nonzero;fill:rgb(81.960784%,69.411765%,59.607843%);fill-opacity:1;" d="M 54.613281 67.492188 L 54.613281 69.632812 L 54.121094 68.125 Z M 54.613281 67.492188 "/>
<path style="fill:none;stroke-width:0.25;stroke-linecap:butt;stroke-linejoin:miter;stroke:rgb(45.098039%,40.392157%,41.568627%);stroke-opacity:1;stroke-miterlimit:10;" d="M 272.404857 354.400116 C 272.404857 354.400116 279.708397 345.405688 280.795346 341.704356 C 281.806019 338.40576 280.795346 331.501722 280.795346 328.107237 " transform="matrix(0.204845,0,0,0.203685,0,0.0327131)"/>
<path style="fill:none;stroke-width:0.5;stroke-linecap:butt;stroke-linejoin:miter;stroke:rgb(45.098039%,40.392157%,41.568627%);stroke-opacity:1;stroke-miterlimit:10;" d="M 361.000795 255.403878 C 361.000795 255.403878 364.299783 260.696974 365.901603 262.00107 C 366.79786 262.806541 369.200591 263.707902 370.30661 264.206527 C 371.603322 264.705152 374.501855 265.299666 375.302765 266.392805 C 376.008329 267.505123 375.607874 270.209204 375.302765 271.398233 C 374.90231 273.009175 374.501855 276.307772 373.491182 277.59269 C 372.499579 278.896786 369.696393 280.891286 368.094572 281.409089 C 366.397405 282.003603 362.602615 281.907714 361.000795 282.598118 C 358.903173 283.499478 353.792602 288.504906 353.792602 288.504906 " transform="matrix(0.204845,0,0,0.203685,0,0.0327131)"/>
<path style="fill:none;stroke-width:0.25;stroke-linecap:butt;stroke-linejoin:miter;stroke:rgb(45.098039%,40.392157%,41.568627%);stroke-opacity:1;stroke-miterlimit:10;" d="M 365.99695 240.502662 L 360.390577 252.105282 L 360.390577 274.409161 L 352.800999 285.609045 L 351.904742 288.504906 " transform="matrix(0.204845,0,0,0.203685,0,0.0327131)"/>
<path style="fill-rule:nonzero;fill:rgb(99.215686%,84.705882%,74.901961%);fill-opacity:1;stroke-width:0.5;stroke-linecap:butt;stroke-linejoin:miter;stroke:rgb(45.098039%,40.392157%,41.568627%);stroke-opacity:1;stroke-miterlimit:10;" d="M 344.200747 301.296555 C 344.200747 301.296555 342.694273 306.091026 342.694273 307.701968 C 342.694273 309.293732 343.209144 312.592328 344.200747 313.896424 C 344.791895 314.797785 347.194626 316.101881 347.194626 317.19502 " transform="matrix(0.204845,0,0,0.203685,0,0.0327131)"/>
<path style=" stroke:none;fill-rule:nonzero;fill:rgb(81.960784%,69.411765%,59.607843%);fill-opacity:1;" d="M 59.078125 46.921875 C 59.527344 46.859375 59.671875 47.714844 60.101562 48.347656 C 60.59375 49.101562 61.679688 49.9375 61.679688 50.484375 C 61.679688 50.648438 61.515625 51.035156 61.351562 51.078125 C 60.53125 51.300781 59.058594 49.710938 58.75 48.9375 C 58.566406 48.488281 58.605469 46.960938 59.078125 46.921875 Z M 59.078125 46.921875 "/>
<path style=" stroke:none;fill-rule:nonzero;fill:rgb(87.843137%,74.509804%,64.313725%);fill-opacity:1;" d="M 73.640625 79.246094 L 64.691406 88.1875 L 64.035156 88.410156 L 64.035156 88.820312 L 63.050781 88.617188 L 62.867188 86.84375 L 65.242188 83.769531 L 70.222656 78.144531 L 71.777344 70.425781 L 72.167969 70.425781 Z M 73.640625 79.246094 "/>
<path style=" stroke:none;fill-rule:nonzero;fill:rgb(73.333333%,74.117647%,74.901961%);fill-opacity:1;" d="M 64.035156 88.921875 L 63.6875 89.289062 L 63.113281 89.125 L 63.050781 88.71875 Z M 64.035156 88.921875 "/>
<path style=" stroke:none;fill-rule:nonzero;fill:url(#linear3);" d="M 79.335938 84.398438 L 73.519531 118.394531 L 58.730469 118.394531 L 56.003906 111.589844 L 43.507812 80.367188 L 45.90625 81.039062 L 46.132812 81.097656 L 50.308594 83.828125 L 55.78125 86.007812 L 55.78125 89.511719 L 57.296875 87.535156 L 60.960938 86.761719 L 62.640625 88.59375 L 63.011719 88.675781 L 63.050781 89.082031 L 63.625 89.226562 L 63.992188 88.859375 L 64.054688 88.878906 L 64.054688 87.046875 L 67.496094 82.933594 L 70.816406 79.429688 L 71.59375 75.761719 L 72.207031 70.773438 L 74.050781 73.113281 L 75.035156 74.355469 L 75.15625 74.519531 L 75.117188 75.640625 L 76.796875 81.097656 L 76.160156 82.789062 C 76.160156 82.789062 76.941406 83.175781 78.105469 83.769531 C 78.539062 83.992188 78.925781 84.195312 79.335938 84.398438 Z M 79.335938 84.398438 "/>
<path style=" stroke:none;fill-rule:nonzero;fill:rgb(73.333333%,73.333333%,73.72549%);fill-opacity:1;" d="M 74.316406 75.703125 L 69.8125 83.707031 L 64.503906 89.042969 C 64.503906 89.042969 64.484375 89.042969 64.484375 89.042969 L 63.726562 87.902344 L 63.726562 86.539062 C 63.726562 86.539062 63.726562 86.539062 63.726562 86.515625 L 63.851562 86.355469 L 63.871094 86.394531 L 70.628906 78.777344 L 72.167969 70.527344 L 73.703125 72.625 C 73.703125 72.625 73.722656 72.6875 73.722656 72.6875 Z M 74.316406 75.703125 "/>
<path style=" stroke:none;fill-rule:nonzero;fill:url(#linear4);" d="M 32.773438 89.105469 L 36.113281 86.945312 L 44.617188 88.023438 L 62.683594 106.214844 L 65.777344 122.835938 L 61.433594 131.632812 Z M 32.773438 89.105469 "/>
<path style=" stroke:none;fill-rule:nonzero;fill:rgb(87.058824%,73.72549%,63.137255%);fill-opacity:1;" d="M 51.007812 81.507812 C 51.007812 81.507812 53.773438 82.078125 54.613281 82.484375 C 55.429688 82.871094 57.910156 83.726562 57.601562 84.582031 C 57.316406 85.398438 54.960938 84.074219 54.121094 83.871094 C 52.5 83.484375 49.285156 83.015625 48.179688 81.507812 C 47.769531 80.9375 51.007812 81.507812 51.007812 81.507812 Z M 51.007812 81.507812 "/>
<path style=" stroke:none;fill-rule:nonzero;fill:rgb(1.176471%,7.45098%,12.941176%);fill-opacity:1;" d="M 67.539062 116.683594 C 67.3125 118.375 66.289062 123.039062 64.585938 122.835938 C 61.984375 122.550781 62.457031 116.582031 62.148438 112.609375 C 62.066406 111.570312 61.945312 110.675781 61.679688 110.042969 C 60.46875 107.050781 57.132812 101.425781 55.042969 98.941406 C 53.773438 97.414062 51.722656 95.175781 49.53125 93.117188 C 48.671875 92.300781 47.789062 91.527344 46.910156 90.835938 C 45.476562 89.695312 44.0625 88.757812 42.855469 88.308594 C 41.746094 87.902344 39.554688 87.351562 37.628906 87.292969 C 36.09375 87.230469 34.761719 87.476562 34.351562 88.308594 C 33.226562 90.613281 38.574219 94.09375 40.804688 96.496094 C 41.050781 96.761719 41.253906 97.007812 41.417969 97.25 C 43.488281 100.308594 46.335938 105.683594 48.898438 110.429688 C 50.308594 113.015625 51.640625 115.421875 52.707031 117.132812 C 54.796875 120.453125 60.757812 126.195312 61.617188 130.003906 C 61.863281 131.082031 61.308594 133.363281 60.941406 134.402344 C 60.738281 134.996094 59.652344 136.542969 59.652344 136.542969 C 59.652344 136.542969 51.210938 127.476562 48.710938 124.199219 C 42.464844 115.96875 23.90625 99.554688 26.324219 89.53125 C 26.40625 89.226562 26.875 89.207031 27.140625 89.0625 C 27.898438 88.636719 28.574219 88.25 29.109375 87.984375 C 31.117188 86.984375 36.605469 84.867188 38.632812 84.113281 C 39.105469 83.929688 39.371094 83.828125 39.371094 83.828125 C 39.371094 83.828125 39.78125 81.792969 39.902344 81.097656 C 40.007812 80.652344 40.191406 79.835938 40.476562 79.144531 C 40.785156 78.429688 41.195312 77.800781 41.769531 77.71875 C 41.972656 77.699219 42.175781 77.71875 42.402344 77.800781 C 43.097656 78.042969 43.898438 78.738281 44.59375 79.46875 C 44.695312 79.570312 44.800781 79.671875 44.882812 79.777344 C 45.128906 80.0625 45.375 80.324219 45.597656 80.570312 C 45.640625 80.609375 45.660156 80.652344 45.699219 80.691406 C 45.84375 80.855469 45.96875 80.996094 46.089844 81.121094 C 46.867188 81.933594 47.933594 83.972656 48.710938 84.765625 C 49.980469 86.050781 53.15625 87.941406 54.570312 89.082031 C 55.125 89.53125 56.433594 90.265625 56.660156 90.9375 C 56.90625 91.648438 56.210938 92.894531 55.882812 93.953125 C 55.71875 94.460938 55.636719 94.910156 55.78125 95.253906 C 56.105469 96.070312 58.074219 96.640625 58.707031 97.25 C 59.609375 98.105469 61.003906 100.203125 61.660156 101.265625 C 62.867188 103.261719 64.855469 107.070312 65.980469 109.796875 C 66.207031 110.328125 66.390625 110.816406 66.535156 111.246094 C 66.984375 112.570312 67.722656 115.320312 67.539062 116.683594 Z M 67.539062 116.683594 "/>
<path style=" stroke:none;fill-rule:nonzero;fill:url(#linear5);" d="M 60.304688 135.707031 L 55.800781 142.183594 L 21.015625 92.789062 C 21.671875 92.382812 22.328125 91.976562 23.003906 91.570312 C 24.480469 90.671875 25.953125 89.796875 27.183594 89.082031 C 27.183594 89.082031 35.089844 97.800781 37.464844 100.898438 C 39.371094 103.382812 42.832031 108.578125 44.472656 111.246094 C 46.949219 115.277344 50.925781 123.933594 53.609375 127.824219 C 55.082031 129.964844 60.304688 135.707031 60.304688 135.707031 Z M 60.304688 135.707031 "/>
<path style=" stroke:none;fill-rule:nonzero;fill:rgb(1.176471%,7.45098%,12.941176%);fill-opacity:1;" d="M 58.378906 138.558594 L 56.722656 147.15625 L 51.476562 147.15625 C 51.476562 147.15625 33.675781 120.796875 27.734375 112.019531 C 24.929688 107.925781 16.59375 95.582031 16.59375 95.582031 C 16.960938 95.335938 17.433594 95.050781 17.945312 94.726562 C 19.335938 93.851562 21.179688 92.6875 23.003906 91.589844 C 23.003906 91.589844 30.152344 99.023438 32.242188 101.734375 C 35.210938 105.582031 40.230469 113.914062 42.855469 117.988281 C 46.132812 123.097656 50.453125 135.625 55.800781 138.578125 C 56.375 138.863281 58.378906 138.558594 58.378906 138.558594 Z M 58.378906 138.558594 "/>
<path style=" stroke:none;fill-rule:nonzero;fill:url(#linear6);" d="M 53.628906 147.15625 L 31.769531 147.050781 L 1.800781 113.015625 C 2.027344 112.527344 2.273438 111.976562 2.5625 111.347656 C 4.097656 108.066406 6.433594 103.34375 7.988281 101.589844 C 9.503906 99.859375 15.507812 96.253906 15.507812 96.253906 C 15.507812 96.253906 16.488281 95.621094 17.925781 94.726562 C 17.925781 94.726562 23.886719 99.429688 25.566406 101.304688 C 28.699219 104.808594 36.113281 116.824219 36.113281 116.824219 L 44.617188 130.023438 Z M 53.628906 147.15625 "/>
<path style=" stroke:none;fill-rule:nonzero;fill:rgb(1.176471%,7.45098%,12.941176%);fill-opacity:1;" d="M 27.183594 134.425781 L 1.042969 125.972656 L 1.042969 114.707031 C 1.042969 114.707031 1.660156 113.28125 2.5625 111.347656 L 2.867188 111.265625 C 2.867188 111.265625 6.738281 111.019531 7.988281 111.265625 C 9.730469 111.613281 12.882812 113.324219 14.441406 114.179688 C 15.609375 114.828125 18.824219 117.234375 18.824219 117.234375 C 18.824219 117.234375 19.929688 119.066406 20.445312 119.554688 C 20.933594 120.023438 22.125 120.816406 22.777344 121.023438 C 23.167969 121.125 24.398438 121.023438 24.398438 121.023438 Z M 27.183594 134.425781 "/>
<path style=" stroke:none;fill-rule:nonzero;fill:url(#linear7);" d="M 1.042969 124.238281 C 1.042969 124.238281 6.882812 124.933594 8.726562 125.542969 C 10.835938 126.257812 14.707031 128.496094 16.632812 129.617188 C 18.292969 130.59375 21.367188 133.039062 23.230469 133.546875 C 23.761719 133.691406 25.421875 133.546875 25.421875 133.546875 L 27.183594 134.425781 L 28.207031 137.050781 C 28.207031 137.050781 29.027344 140.414062 29.089844 141.574219 C 29.148438 142.980469 28.492188 147.175781 28.492188 147.175781 C 28.492188 147.175781 16.019531 147.949219 11.941406 147.175781 C 10.589844 146.910156 9.648438 144.976562 7.394531 144.039062 C 4.8125 142.957031 1.023438 142.878906 1.023438 142.878906 L 1.023438 124.238281 Z M 1.042969 124.238281 "/>
<path style=" stroke:none;fill-rule:nonzero;fill:rgb(1.176471%,7.45098%,12.941176%);fill-opacity:1;" d="M 1.042969 142.855469 C 1.042969 142.855469 5.921875 143.40625 7.414062 144.019531 C 8.683594 144.546875 11.964844 147.15625 11.964844 147.15625 L 1.042969 147.15625 Z M 1.042969 142.855469 "/>
<path style=" stroke:none;fill-rule:nonzero;fill:rgb(1.176471%,7.45098%,12.941176%);fill-opacity:1;" d="M 21.917969 115.054688 L 23.824219 117.964844 L 24.847656 112.875 L 25.421875 118.84375 L 32.753906 129.476562 L 34.371094 142.855469 L 36.113281 145.015625 L 36.113281 147.15625 L 24.253906 147.15625 L 23.679688 119.128906 Z M 21.917969 115.054688 "/>
<path style=" stroke:none;fill-rule:nonzero;fill:url(#linear8);" d="M 87.140625 88.511719 L 81.609375 147.15625 L 67.25 147.15625 L 81.734375 103.6875 L 81.734375 85.621094 C 82.410156 85.96875 83.105469 86.335938 83.761719 86.679688 C 84.988281 87.332031 86.097656 87.921875 86.8125 88.332031 C 86.9375 88.390625 87.039062 88.453125 87.140625 88.511719 Z M 87.140625 88.511719 "/>
<path style=" stroke:none;fill-rule:nonzero;fill:rgb(1.176471%,7.45098%,12.941176%);fill-opacity:1;" d="M 89.109375 89.695312 L 87.304688 147.175781 L 79.253906 147.175781 L 80.523438 142.183594 L 80.523438 138.601562 L 81.222656 132.488281 L 81.222656 122.855469 L 82.101562 112.894531 L 82.984375 105.644531 L 82.984375 98.105469 L 84.621094 89.675781 L 83.78125 86.699219 C 85.011719 87.351562 86.117188 87.941406 86.832031 88.351562 C 86.9375 88.410156 87.039062 88.472656 87.140625 88.535156 C 87.714844 88.859375 88.351562 89.246094 89.027344 89.675781 C 89.046875 89.652344 89.066406 89.675781 89.109375 89.695312 Z M 89.109375 89.695312 "/>
<path style=" stroke:none;fill-rule:nonzero;fill:url(#linear9);" d="M 96.726562 94.5625 L 94.25 112.875 L 92.488281 147.15625 L 84.621094 147.15625 L 86.34375 138.578125 L 86.34375 124.21875 L 87.222656 116.316406 L 87.222656 105.96875 L 88.105469 96.03125 L 89.027344 89.632812 C 90.601562 90.589844 92.425781 91.753906 94.25 92.933594 C 95.070312 93.484375 95.910156 94.035156 96.726562 94.5625 Z M 96.726562 94.5625 "/>
<path style=" stroke:none;fill-rule:nonzero;fill:rgb(1.176471%,7.45098%,12.941176%);fill-opacity:1;" d="M 101.707031 98.027344 L 99.164062 112.019531 L 96.808594 147.175781 L 89.597656 147.175781 L 90.335938 140.636719 L 90.789062 130.046875 L 90.113281 120.960938 L 89.210938 117.578125 L 89.210938 112.894531 L 91.21875 109.003906 L 94.230469 92.953125 C 95.847656 93.992188 97.464844 95.070312 98.898438 96.050781 C 99.964844 96.761719 100.90625 97.433594 101.707031 98.027344 Z M 101.707031 98.027344 "/>
<path style=" stroke:none;fill-rule:nonzero;fill:url(#linear10);" d="M 113.976562 110.289062 L 113.976562 147.175781 L 94.964844 147.175781 L 95.519531 145.015625 L 95.152344 136.5625 L 95.152344 131.632812 L 94.230469 122.835938 L 94.230469 117.191406 L 96.625 107.152344 L 98.898438 96.03125 C 100.085938 96.84375 101.152344 97.597656 101.992188 98.230469 C 103.816406 99.59375 107.460938 102.382812 109.039062 104.035156 C 110.453125 105.460938 113.976562 110.289062 113.976562 110.289062 Z M 113.976562 110.289062 "/>
<path style=" stroke:none;fill-rule:nonzero;fill:rgb(1.176471%,7.45098%,12.941176%);fill-opacity:1;" d="M 113.976562 110.289062 L 113.976562 147.15625 L 102.339844 147.15625 L 102.339844 138.601562 L 103.261719 124.238281 L 109.324219 118.3125 Z M 113.976562 110.289062 "/>
<path style=" stroke:none;fill-rule:nonzero;fill:url(#linear11);" d="M 113.976562 130.023438 L 107.296875 138.4375 L 102.339844 147.15625 L 113.976562 147.15625 Z M 113.976562 130.023438 "/>
<path style=" stroke:none;fill-rule:nonzero;fill:rgb(1.176471%,7.45098%,12.941176%);fill-opacity:1;" d="M 80.339844 92.933594 L 76.941406 94.707031 L 80.339844 103.503906 L 76.941406 110.265625 L 76.941406 112.875 L 70.199219 125.808594 L 66.738281 130.023438 L 64.585938 134.425781 L 64.8125 136.828125 L 63.398438 140.535156 L 61.125 147.15625 L 53.855469 147.15625 L 66.574219 116.175781 C 66.574219 116.175781 68.808594 114.015625 69.441406 112.875 C 69.894531 112.078125 70.363281 112.894531 71.121094 112.324219 C 71.367188 112.140625 71.121094 109.289062 71.121094 109.289062 L 73.582031 109.003906 C 73.582031 109.003906 74.03125 107.539062 73.929688 107.109375 C 73.601562 105.785156 71.144531 104.257812 70.875 103.015625 C 70.691406 102.140625 72.144531 100.550781 72.085938 99.675781 C 72.042969 98.859375 70.222656 97.046875 70.222656 97.046875 C 70.222656 97.046875 70.792969 94.277344 70.753906 91.976562 C 70.734375 90.714844 69.6875 89.59375 70.222656 89.125 C 71.0625 88.390625 74.605469 89.675781 74.605469 89.675781 L 76.242188 82.871094 L 80.359375 89.675781 L 80.359375 92.933594 Z M 80.339844 92.933594 "/>
<path style=" stroke:none;fill-rule:nonzero;fill:url(#linear12);" d="M 81.753906 85.621094 L 81.753906 103.6875 L 67.269531 147.15625 L 61.125 147.15625 L 63.398438 140.535156 L 63.542969 137.03125 L 64.585938 134.402344 L 66.738281 130.003906 L 70.199219 125.789062 L 76.941406 112.855469 L 76.941406 110.265625 L 80.339844 103.503906 L 76.941406 94.707031 L 80.339844 92.933594 L 80.339844 89.652344 L 76.222656 82.851562 C 76.222656 82.832031 78.96875 84.195312 81.753906 85.621094 Z M 81.753906 85.621094 "/>
<path style=" stroke:none;fill-rule:nonzero;fill:rgb(1.176471%,7.45098%,12.941176%);fill-opacity:1;" d="M 102.339844 108.984375 L 103.324219 120.042969 L 102.339844 147.15625 L 108.15625 147.15625 L 106.785156 134.425781 L 105.25 116.925781 L 106.785156 108.984375 L 106.027344 107.152344 L 104.101562 114.992188 Z M 102.339844 108.984375 "/>
<path style=" stroke:none;fill-rule:nonzero;fill:rgb(1.176471%,7.45098%,12.941176%);fill-opacity:1;" d="M 65.550781 137.824219 C 65.550781 139.3125 64.339844 140.515625 62.847656 140.515625 C 61.351562 140.515625 60.140625 139.3125 60.140625 137.824219 C 60.140625 136.339844 61.351562 135.136719 62.847656 135.136719 C 64.339844 135.136719 65.550781 136.339844 65.550781 137.824219 Z M 65.550781 137.824219 "/>
<path style=" stroke:none;fill-rule:nonzero;fill:rgb(1.176471%,7.45098%,12.941176%);fill-opacity:1;" d="M 63.03125 135.238281 C 62.582031 135.523438 62.007812 136.480469 61.882812 137.011719 C 61.742188 137.683594 61.984375 138.964844 62.335938 139.558594 C 62.558594 139.921875 63.378906 140.554688 63.378906 140.554688 C 63.378906 140.554688 63.050781 137.824219 63.378906 136.582031 C 63.480469 136.214844 63.808594 135.136719 63.808594 135.136719 C 63.808594 135.136719 63.195312 135.136719 63.03125 135.238281 Z M 63.03125 135.238281 "/>
<path style="fill:none;stroke-width:0.75;stroke-linecap:butt;stroke-linejoin:miter;stroke:rgb(73.333333%,73.333333%,73.72549%);stroke-opacity:1;stroke-miterlimit:10;" d="M 308.197921 476.007079 C 310.39089 478.193358 317.007935 484.905617 319.906467 492.193213 " transform="matrix(0.204845,0,0,0.203685,0,0.0327131)"/>
<path style="fill:none;stroke-width:0.25;stroke-linecap:butt;stroke-linejoin:miter;stroke:rgb(45.098039%,40.392157%,41.568627%);stroke-opacity:1;stroke-miterlimit:10;" d="M 276.790795 446.300536 C 276.790795 446.300536 293.095041 450.097757 298.300958 456.100435 " transform="matrix(0.204845,0,0,0.203685,0,0.0327131)"/>
<path style="fill:none;stroke-width:0.5;stroke-linecap:butt;stroke-linejoin:miter;stroke:rgb(45.098039%,40.392157%,41.568627%);stroke-opacity:1;stroke-miterlimit:10;" d="M 321.107833 496.105501 C 321.107833 496.105501 333.197765 508.494415 334.494477 514.803939 " transform="matrix(0.204845,0,0,0.203685,0,0.0327131)"/>
<path style="fill-rule:nonzero;fill:rgb(73.333333%,74.117647%,74.901961%);fill-opacity:1;stroke-width:1;stroke-linecap:butt;stroke-linejoin:miter;stroke:rgb(73.333333%,73.333333%,73.72549%);stroke-opacity:1;stroke-miterlimit:10;" d="M 315.291698 468.700305 C 315.291698 468.700305 323.491495 483.505632 327.496046 487.302853 " transform="matrix(0.204845,0,0,0.203685,0,0.0327131)"/>
<path style="fill:none;stroke-width:0.5;stroke-linecap:butt;stroke-linejoin:miter;stroke:rgb(45.098039%,40.392157%,41.568627%);stroke-opacity:1;stroke-miterlimit:10;" d="M 315.291698 514.899828 C 315.291698 514.899828 333.903329 514.209424 338.804137 517.50802 C 343.094728 520.307991 346.908587 531.603765 347.09928 536.398236 " transform="matrix(0.204845,0,0,0.203685,0,0.0327131)"/>
<path style="fill:none;stroke-width:0.25;stroke-linecap:butt;stroke-linejoin:miter;stroke:rgb(1.176471%,7.45098%,12.941176%);stroke-opacity:1;stroke-miterlimit:10;" d="M 342.694273 437.306109 C 342.694273 433.297931 334.094022 427.697989 330.108539 427.50621 C 325.49377 427.391143 312.908037 434.199292 312.908037 434.199292 L 311.001107 431.39932 L 311.001107 424.591172 L 344.791895 386.599783 L 352.305197 346.096092 L 366.492751 365.101375 " transform="matrix(0.204845,0,0,0.203685,0,0.0327131)"/>
<path style=" stroke:none;fill-rule:nonzero;fill:rgb(73.333333%,74.117647%,74.901961%);fill-opacity:1;" d="M 36.09375 30.035156 C 36.257812 29.546875 36.460938 28.304688 36.09375 27.9375 C 35.785156 27.632812 34.742188 27.875 34.394531 27.652344 C 34.023438 27.429688 33.59375 26.550781 33.554688 26.105469 C 33.492188 25.410156 34.25 24.128906 34.394531 23.4375 C 34.535156 22.664062 34.558594 21.054688 34.558594 21.054688 C 34.558594 21.054688 36.257812 18.792969 36.667969 18.242188 C 37.28125 17.386719 38.429688 15.390625 39.492188 14.859375 L 40.558594 14.882812 C 40.558594 14.882812 41.050781 18.425781 41.460938 19.464844 C 41.910156 20.585938 43.960938 23.558594 43.960938 23.558594 Z M 36.09375 30.035156 "/>
<path style=" stroke:none;fill-rule:nonzero;fill:url(#linear13);" d="M 99.1875 37.410156 L 95.867188 44.335938 C 95.867188 44.335938 88.820312 44.394531 86.546875 45.921875 L 85.75 45.3125 L 79.253906 41.605469 L 76.222656 38.570312 L 72.496094 36.492188 L 67.105469 31.808594 L 62.847656 27.898438 L 58.648438 26.777344 L 49.183594 22.4375 L 43.960938 18.425781 L 43.53125 16.671875 C 45.003906 16.53125 46.929688 13.820312 48.078125 12.886719 C 49.164062 11.988281 51.4375 10.21875 52.789062 9.789062 C 53.914062 9.441406 56.351562 9.726562 57.539062 9.789062 C 58.832031 9.851562 61.414062 10.175781 62.703125 10.359375 C 64.136719 10.5625 67.023438 11.113281 68.480469 11.195312 C 70.34375 11.296875 74.257812 11.011719 75.976562 11.765625 C 77.125 12.273438 78.703125 14.3125 79.644531 15.144531 C 80.8125 16.164062 84.273438 19.789062 85.421875 20.871094 C 85.542969 21.703125 87.859375 26.796875 87.859375 26.796875 C 87.859375 26.796875 89.84375 27.691406 90.828125 28.34375 C 92.507812 29.464844 97.753906 32.5625 97.753906 32.5625 Z M 99.1875 37.410156 "/>
<path style=" stroke:none;fill-rule:nonzero;fill:url(#linear14);" d="M 65.121094 13.800781 L 69.011719 17.570312 L 69.707031 20.300781 L 70.199219 22.4375 L 71.429688 24.636719 L 74.972656 27.773438 L 80.953125 33.070312 L 87.140625 37.285156 L 94.148438 38.304688 L 95.417969 38.304688 L 95.867188 40.585938 L 91.054688 40.238281 L 90.355469 43.539062 L 87.960938 38.996094 L 85.726562 38.652344 L 83.597656 37.980469 L 79.335938 33.070312 L 74.707031 30.035156 L 70.652344 26.695312 L 69.011719 22.4375 L 64.097656 19.605469 L 67.539062 18.242188 L 65.777344 15.613281 L 57.621094 11.050781 L 53.855469 10.378906 L 49.960938 12.785156 L 43.960938 17.222656 L 48.773438 8.667969 L 64.097656 6.386719 Z M 65.121094 13.800781 "/>
<path style="fill-rule:nonzero;fill:rgb(73.333333%,73.333333%,73.72549%);fill-opacity:1;stroke-width:0.75;stroke-linecap:butt;stroke-linejoin:miter;stroke:rgb(73.333333%,73.333333%,73.72549%);stroke-opacity:1;stroke-miterlimit:10;" d="M 324.406821 451.190897 L 338.99483 468.700305 " transform="matrix(0.204845,0,0,0.203685,0,0.0327131)"/>
<path style="fill-rule:nonzero;fill:rgb(73.333333%,74.117647%,74.901961%);fill-opacity:1;stroke-width:0.75;stroke-linecap:butt;stroke-linejoin:miter;stroke:rgb(73.333333%,73.333333%,73.72549%);stroke-opacity:1;stroke-miterlimit:10;" d="M 324.406821 442.503315 C 324.406821 442.503315 338.99483 454.297714 338.99483 459.993546 " transform="matrix(0.204845,0,0,0.203685,0,0.0327131)"/>
<path style="fill-rule:nonzero;fill:rgb(73.333333%,74.117647%,74.901961%);fill-opacity:1;stroke-width:0.75;stroke-linecap:butt;stroke-linejoin:miter;stroke:rgb(73.333333%,73.333333%,73.72549%);stroke-opacity:1;stroke-miterlimit:10;" d="M 318.49534 465.30582 C 318.49534 465.30582 333.197765 474.396137 333.197765 479.497454 " transform="matrix(0.204845,0,0,0.203685,0,0.0327131)"/>
<path style="fill-rule:nonzero;fill:rgb(73.333333%,74.117647%,74.901961%);fill-opacity:1;stroke-width:0.75;stroke-linecap:butt;stroke-linejoin:miter;stroke:rgb(73.333333%,73.333333%,73.72549%);stroke-opacity:1;stroke-miterlimit:10;" d="M 321.393872 456.100435 C 321.393872 456.100435 327.190938 466.494848 330.604341 468.700305 " transform="matrix(0.204845,0,0,0.203685,0,0.0327131)"/>
<path style=" stroke:none;fill-rule:nonzero;fill:rgb(67.843137%,68.627451%,69.803922%);fill-opacity:1;" d="M 56.375 92.75 C 56.375 92.75 57.972656 93.542969 58.378906 93.992188 C 59.117188 94.785156 59.957031 96.863281 60.328125 97.882812 C 60.511719 98.371094 60.796875 99.878906 60.796875 99.878906 C 60.796875 99.878906 59.488281 97.394531 58.933594 96.640625 C 58.421875 95.96875 56.621094 94.214844 56.621094 94.214844 L 56.023438 93.726562 Z M 56.375 92.75 "/>
</g>
</svg>
